<mxfile host="65bd71144e">
    <diagram id="UV_xtOekJP0lUzB7Bbdw" name="Page-1">
        <mxGraphModel dx="818" dy="591" grid="1" gridSize="10" guides="1" tooltips="1" connect="1" arrows="1" fold="1" page="1" pageScale="1" pageWidth="1100" pageHeight="1700" math="0" shadow="0">
            <root>
                <mxCell id="0"/>
                <mxCell id="1" parent="0"/>
                <mxCell id="2" value="ui button" style="text;strokeColor=none;fillColor=none;html=1;fontSize=23;fontStyle=0;verticalAlign=middle;align=center;" vertex="1" parent="1">
                    <mxGeometry x="320" y="10" width="100" height="40" as="geometry"/>
                </mxCell>
                <mxCell id="3" value="Button" style="rounded=1;whiteSpace=wrap;html=1;fontSize=16;" vertex="1" parent="1">
                    <mxGeometry x="440" y="100" width="120" height="60" as="geometry"/>
                </mxCell>
                <mxCell id="5" value="List" style="whiteSpace=wrap;html=1;aspect=fixed;fontSize=16;" vertex="1" parent="1">
                    <mxGeometry x="50" y="100" width="160" height="160" as="geometry"/>
                </mxCell>
                <mxCell id="7" value="Button" style="rounded=1;whiteSpace=wrap;html=1;fontSize=16;" vertex="1" parent="1">
                    <mxGeometry x="130" y="230" width="80" height="30" as="geometry"/>
                </mxCell>
                <mxCell id="9" value="&lt;div style=&quot;color: rgb(0 , 0 , 0) ; background-color: rgb(255 , 255 , 255) ; font-family: &amp;#34;consolas&amp;#34; , &amp;#34;courier new&amp;#34; , monospace ; font-weight: normal ; font-size: 14px ; line-height: 19px&quot;&gt;&lt;div&gt;&lt;span style=&quot;color: #800000&quot;&gt;&amp;lt;button&lt;/span&gt;&lt;span style=&quot;color: #000000&quot;&gt;&amp;nbsp;&lt;/span&gt;&lt;span style=&quot;color: rgb(255 , 0 , 0)&quot;&gt;onClick&lt;/span&gt;=&lt;span style=&quot;color: rgb(0 , 0 , 255)&quot;&gt;{&lt;/span&gt;&lt;span style=&quot;color: rgb(0 , 16 , 128)&quot;&gt;props&lt;/span&gt;.&lt;span style=&quot;color: rgb(0 , 16 , 128)&quot;&gt;onClick&lt;/span&gt;&lt;span style=&quot;color: rgb(0 , 0 , 255)&quot;&gt;}&lt;/span&gt;&lt;span style=&quot;color: rgb(128 , 0 , 0)&quot;&gt;&amp;gt;&lt;/span&gt;&lt;/div&gt;&lt;div&gt;&lt;span style=&quot;color: #800000&quot;&gt;&amp;nbsp; &amp;nbsp;{props.children}&lt;/span&gt;&lt;/div&gt;&lt;div&gt;&lt;span style=&quot;color: #800000&quot;&gt;&amp;lt;button&amp;gt;&lt;/span&gt;&lt;/div&gt;&lt;/div&gt;" style="text;whiteSpace=wrap;html=1;fontSize=16;" vertex="1" parent="1">
                    <mxGeometry x="580" y="90" width="260" height="70" as="geometry"/>
                </mxCell>
                <mxCell id="11" value="" style="endArrow=classic;html=1;fontSize=16;exitX=0;exitY=0.25;exitDx=0;exitDy=0;entryX=1;entryY=0.25;entryDx=0;entryDy=0;" edge="1" parent="1" source="3" target="5">
                    <mxGeometry width="50" height="50" relative="1" as="geometry">
                        <mxPoint x="410" y="320" as="sourcePoint"/>
                        <mxPoint x="460" y="270" as="targetPoint"/>
                    </mxGeometry>
                </mxCell>
                <mxCell id="12" value="import" style="text;html=1;strokeColor=none;fillColor=none;align=center;verticalAlign=middle;whiteSpace=wrap;rounded=0;fontSize=14;" vertex="1" parent="1">
                    <mxGeometry x="300" y="100" width="60" height="30" as="geometry"/>
                </mxCell>
                <mxCell id="13" value="" style="endArrow=classic;html=1;fontSize=16;exitX=1;exitY=0.5;exitDx=0;exitDy=0;entryX=0;entryY=1;entryDx=0;entryDy=0;" edge="1" parent="1" source="7" target="3">
                    <mxGeometry width="50" height="50" relative="1" as="geometry">
                        <mxPoint x="410" y="320" as="sourcePoint"/>
                        <mxPoint x="460" y="270" as="targetPoint"/>
                    </mxGeometry>
                </mxCell>
                <mxCell id="15" value="&amp;lt;Button onClick={ () =&amp;gt; { toEventDetails(event.eventid) }" style="text;html=1;strokeColor=none;fillColor=none;align=left;verticalAlign=middle;whiteSpace=wrap;rounded=0;fontSize=14;" vertex="1" parent="1">
                    <mxGeometry x="220" y="230" width="410" height="30" as="geometry"/>
                </mxCell>
                <mxCell id="16" value="&lt;span style=&quot;color: rgb(32 , 33 , 36) ; font-family: &amp;#34;consolas&amp;#34; , &amp;#34;lucida console&amp;#34; , &amp;#34;courier new&amp;#34; , monospace ; font-size: 12px ; font-style: normal ; font-weight: 400 ; letter-spacing: normal ; text-indent: 0px ; text-transform: none ; word-spacing: 0px ; background-color: rgb(255 , 255 , 255) ; display: inline ; float: none&quot;&gt;&amp;nbsp;Button.props:&lt;br&gt;&lt;/span&gt;&lt;span style=&quot;color: rgb(32 , 33 , 36) ; font-family: &amp;#34;consolas&amp;#34; , &amp;#34;lucida console&amp;#34; , &amp;#34;courier new&amp;#34; , monospace ; font-size: 12px ; font-style: normal ; font-weight: 400 ; letter-spacing: normal ; text-indent: 0px ; text-transform: none ; word-spacing: 0px ; background-color: rgb(255 , 255 , 255) ; display: inline ; float: none&quot;&gt; &lt;/span&gt;&lt;div class=&quot;console-view-object-properties-section object-value-object source-code expanded&quot; style=&quot;padding: 0px ; box-sizing: border-box ; min-width: 0px ; min-height: 0px ; outline-width: 0px ; font-family: &amp;#34;consolas&amp;#34; , &amp;#34;lucida console&amp;#34; , &amp;#34;courier new&amp;#34; , monospace ; font-size: 12px ; position: relative ; vertical-align: baseline ; color: rgb(32 , 33 , 36) ; display: inline-block ; overflow-wrap: break-word ; max-width: 100% ; line-height: 1.2 ; font-style: normal ; font-weight: 400 ; letter-spacing: normal ; text-indent: 0px ; text-transform: none ; word-spacing: 0px ; background-color: rgb(255 , 255 , 255)&quot;&gt;&lt;div class=&quot;tree-outline-disclosure tree-outline-disclosure-hide-overflow&quot; style=&quot;box-sizing: border-box ; min-width: 0px ; min-height: 0px&quot;&gt;&lt;ol class=&quot;tree-outline hide-selection-when-blurred source-code object-properties-section&quot; tabindex=&quot;-1&quot; style=&quot;box-sizing: border-box ; min-width: 0px ; min-height: 0px ; padding: 0px ; margin: 0px ; z-index: 0 ; position: relative ; display: flex ; flex-direction: column ; list-style-type: none&quot;&gt;&lt;li title=&quot;&quot; class=&quot;parent object-properties-section-root-element expanded&quot; style=&quot;box-sizing: border-box ; min-width: 0px ; min-height: 16px ; display: flex ; flex-direction: row ; text-overflow: ellipsis ; position: relative ; align-items: center&quot;&gt;&lt;span class=&quot;console-object console-object-preview&quot; tabindex=&quot;-1&quot; style=&quot;box-sizing: border-box ; min-width: 0px ; min-height: 0px ; overflow-wrap: break-word ; font-style: italic ; word-break: break-all&quot;&gt;&lt;span class=&quot;object-properties-preview&quot; style=&quot;box-sizing: border-box ; min-width: 0px ; min-height: 0px&quot;&gt;&amp;nbsp; &amp;nbsp; {&lt;span class=&quot;name&quot; style=&quot;box-sizing: border-box ; min-width: 0px ; min-height: 0px&quot;&gt;children&lt;/span&gt;: &lt;span class=&quot;object-value-string&quot; style=&quot;box-sizing: border-box ; min-width: 0px ; min-height: 0px ; word-break: break-all&quot;&gt;'Explore Event'&lt;/span&gt;, &lt;span class=&quot;name&quot; style=&quot;box-sizing: border-box ; min-width: 0px ; min-height: 0px&quot;&gt;onClick&lt;/span&gt;: &lt;span class=&quot;object-value-function&quot; style=&quot;box-sizing: border-box ; min-width: 0px ; min-height: 0px ; font-style: italic&quot;&gt;Æ’&lt;/span&gt;}&lt;/span&gt;&lt;span class=&quot;object-state-note info-note&quot; title=&quot;This value was evaluated upon first expanding. It may have changed since then.&quot; style=&quot;box-sizing: border-box ; min-width: 0px ; min-height: 0px ; display: inline-block ; width: 11px ; height: 11px ; text-align: center ; border-radius: 3px ; line-height: 13px ; margin: 0px 6px ; font-size: 9px&quot;&gt;&lt;/span&gt;&lt;/span&gt;&lt;/li&gt;&lt;ol class=&quot;children expanded&quot; style=&quot;box-sizing: border-box ; min-width: 0px ; min-height: 0px ; list-style-type: none ; padding-left: 12px ; display: block&quot;&gt;&lt;li style=&quot;box-sizing: border-box ; min-width: 0px ; min-height: 16px ; text-overflow: ellipsis ; position: relative ; display: flex ; align-items: center&quot;&gt;&lt;span class=&quot;name-and-value&quot; style=&quot;box-sizing: border-box ; min-width: 0px ; min-height: 0px ; overflow: hidden ; line-height: 16px ; display: flex&quot;&gt;&lt;span class=&quot;name own-property&quot; title=&quot;children&quot; style=&quot;box-sizing: border-box ; min-width: 0px ; min-height: 0px ; font-weight: 700&quot;&gt;&amp;nbsp; &amp;nbsp; &amp;nbsp;children&lt;/span&gt;&lt;span class=&quot;separator&quot; style=&quot;box-sizing: border-box ; min-width: 0px ; min-height: 0px&quot;&gt;: &lt;/span&gt;&lt;span class=&quot;object-value-string value&quot; title=&quot;Explore Event&quot; style=&quot;box-sizing: border-box ; min-width: 0px ; min-height: 0px&quot;&gt;&quot;Explore Event&quot;&lt;/span&gt;&lt;/span&gt;&lt;/li&gt;&lt;li class=&quot;parent expanded&quot; style=&quot;box-sizing: border-box ; min-width: 0px ; min-height: 16px ; text-overflow: ellipsis ; position: relative ; display: flex ; align-items: center&quot;&gt;&lt;span class=&quot;name-and-value&quot; style=&quot;box-sizing: border-box ; min-width: 0px ; min-height: 0px ; overflow: hidden ; line-height: 16px ; display: flex&quot;&gt;&lt;span class=&quot;name own-property&quot; title=&quot;onClick&quot; style=&quot;box-sizing: border-box ; min-width: 0px ; min-height: 0px ; font-weight: 700&quot;&gt;&amp;nbsp; &amp;nbsp; &amp;nbsp;onClick&lt;/span&gt;&lt;span class=&quot;separator&quot; style=&quot;box-sizing: border-box ; min-width: 0px ; min-height: 0px&quot;&gt;: &lt;/span&gt;&lt;span class=&quot;object-value-function value&quot; title=&quot;function() {&amp;lt;br/&amp;gt;                                        return toEventDetails(props.event);&amp;lt;br/&amp;gt;                                    }&quot; style=&quot;box-sizing: border-box ; min-width: 0px ; min-height: 0px ; font-style: italic&quot;&gt;&lt;span class=&quot;object-value-function-prefix&quot; style=&quot;box-sizing: border-box ; min-width: 0px ; min-height: 0px&quot;&gt;Æ’&lt;span&gt;&amp;nbsp;&lt;/span&gt;&lt;/span&gt;()&lt;/span&gt;&lt;/span&gt;&lt;/li&gt;&lt;ol class=&quot;children expanded&quot; style=&quot;box-sizing: border-box ; min-width: 0px ; min-height: 0px ; list-style-type: none ; padding-left: 12px ; display: block&quot;&gt;&lt;li style=&quot;box-sizing: border-box ; min-width: 0px ; min-height: 16px ; text-overflow: ellipsis ; position: relative ; display: flex ; align-items: center&quot;&gt;&lt;span class=&quot;name-and-value&quot; style=&quot;box-sizing: border-box ; min-width: 0px ; min-height: 0px ; overflow: hidden ; line-height: 16px ; display: flex&quot;&gt;&lt;span class=&quot;name object-properties-section-dimmed own-property&quot; title=&quot;onClick.length&quot; style=&quot;box-sizing: border-box ; min-width: 0px ; min-height: 0px ; opacity: 0.6 ; font-weight: 700&quot;&gt;&lt;br&gt;&lt;/span&gt;&lt;/span&gt;&lt;/li&gt;&lt;li tabindex=&quot;-1&quot; class=&quot;selected&quot; style=&quot;box-sizing: border-box ; min-width: 0px ; min-height: 16px ; outline-width: 0px ; text-overflow: ellipsis ; position: relative ; display: flex ; align-items: center&quot;&gt;&lt;span class=&quot;name-and-value&quot; style=&quot;box-sizing: border-box ; min-width: 0px ; min-height: 0px ; overflow: hidden ; line-height: 16px ; display: flex&quot;&gt;&lt;span class=&quot;object-value-string value&quot; title=&quot;onClick&quot; style=&quot;box-sizing: border-box ; min-width: 0px ; min-height: 0px&quot;&gt;&lt;br&gt;&lt;/span&gt;&lt;/span&gt;&lt;/li&gt;&lt;/ol&gt;&lt;/ol&gt;&lt;/ol&gt;&lt;/div&gt;&lt;/div&gt;" style="text;whiteSpace=wrap;html=1;fontSize=14;strokeColor=default;dashed=1;" vertex="1" parent="1">
                    <mxGeometry x="530" y="300" width="310" height="100" as="geometry"/>
                </mxCell>
                <mxCell id="17" value="&lt;div style=&quot;color: rgb(0, 0, 0); background-color: rgb(255, 255, 255); font-family: consolas, &amp;quot;courier new&amp;quot;, monospace; font-weight: normal; font-size: 13px; line-height: 19px;&quot;&gt;&lt;div style=&quot;font-size: 13px;&quot;&gt;&lt;span style=&quot;color: rgb(0, 0, 0); font-size: 13px;&quot;&gt;&amp;nbsp; &amp;nbsp; &lt;/span&gt;&lt;span style=&quot;color: rgb(0, 0, 255); font-size: 13px;&quot;&gt;const&lt;/span&gt;&lt;span style=&quot;color: rgb(0, 0, 0); font-size: 13px;&quot;&gt; &lt;/span&gt;&lt;span style=&quot;color: rgb(121, 94, 38); font-size: 13px;&quot;&gt;toEventDetails&lt;/span&gt;&lt;span style=&quot;color: rgb(0, 0, 0); font-size: 13px;&quot;&gt; = (&lt;/span&gt;&lt;span style=&quot;color: rgb(0, 16, 128); font-size: 13px;&quot;&gt;ev&lt;/span&gt;&lt;span style=&quot;color: rgb(0, 0, 0); font-size: 13px;&quot;&gt;) &lt;/span&gt;&lt;span style=&quot;color: rgb(0, 0, 255); font-size: 13px;&quot;&gt;=&amp;gt;&lt;/span&gt;&lt;span style=&quot;color: rgb(0, 0, 0); font-size: 13px;&quot;&gt; {&lt;/span&gt;&lt;/div&gt;&lt;div style=&quot;font-size: 13px;&quot;&gt;&lt;span style=&quot;color: rgb(0, 0, 0); font-size: 13px;&quot;&gt;&amp;nbsp; &amp;nbsp; &amp;nbsp; &amp;nbsp; &lt;/span&gt;&lt;span style=&quot;color: rgb(0, 0, 255); font-size: 13px;&quot;&gt;const&lt;/span&gt;&lt;span style=&quot;color: rgb(0, 0, 0); font-size: 13px;&quot;&gt; &lt;/span&gt;&lt;span style=&quot;color: rgb(0, 112, 193); font-size: 13px;&quot;&gt;exploreLink&lt;/span&gt;&lt;span style=&quot;color: rgb(0, 0, 0); font-size: 13px;&quot;&gt; = &lt;/span&gt;&lt;span style=&quot;color: rgb(163, 21, 21); font-size: 13px;&quot;&gt;`/events/&lt;/span&gt;&lt;span style=&quot;color: rgb(0, 0, 255); font-size: 13px;&quot;&gt;${&lt;/span&gt;&lt;span style=&quot;color: rgb(0, 16, 128); font-size: 13px;&quot;&gt;ev&lt;/span&gt;&lt;span style=&quot;color: rgb(0, 0, 0); font-size: 13px;&quot;&gt;.&lt;/span&gt;&lt;span style=&quot;color: rgb(0, 16, 128); font-size: 13px;&quot;&gt;eventid&lt;/span&gt;&lt;span style=&quot;color: rgb(0, 0, 255); font-size: 13px;&quot;&gt;}&lt;/span&gt;&lt;span style=&quot;color: rgb(163, 21, 21); font-size: 13px;&quot;&gt;`&lt;/span&gt;&lt;span style=&quot;color: rgb(0, 0, 0); font-size: 13px;&quot;&gt;;&lt;/span&gt;&lt;/div&gt;&lt;div style=&quot;font-size: 13px;&quot;&gt;&lt;span style=&quot;color: rgb(0, 0, 0); font-size: 13px;&quot;&gt;&amp;nbsp; &amp;nbsp; &amp;nbsp; &amp;nbsp; &lt;/span&gt;&lt;span style=&quot;color: rgb(0, 112, 193); font-size: 13px;&quot;&gt;router&lt;/span&gt;&lt;span style=&quot;color: rgb(0, 0, 0); font-size: 13px;&quot;&gt;.&lt;/span&gt;&lt;span style=&quot;color: rgb(121, 94, 38); font-size: 13px;&quot;&gt;push&lt;/span&gt;&lt;span style=&quot;color: rgb(0, 0, 0); font-size: 13px;&quot;&gt;(&lt;/span&gt;&lt;span style=&quot;color: rgb(0, 112, 193); font-size: 13px;&quot;&gt;exploreLink&lt;/span&gt;&lt;span style=&quot;color: rgb(0, 0, 0); font-size: 13px;&quot;&gt;)&lt;/span&gt;&lt;/div&gt;&lt;div style=&quot;font-size: 13px;&quot;&gt;&lt;span style=&quot;color: rgb(0, 0, 0); font-size: 13px;&quot;&gt;&amp;nbsp; &amp;nbsp; };&lt;/span&gt;&lt;/div&gt;&lt;/div&gt;" style="text;whiteSpace=wrap;html=1;fontSize=13;strokeColor=default;dashed=1;" vertex="1" parent="1">
                    <mxGeometry x="50" y="300" width="410" height="100" as="geometry"/>
                </mxCell>
            </root>
        </mxGraphModel>
    </diagram>
</mxfile>